<svg width="2205" height="2462" viewBox="0 0 2205 2462" fill="none" xmlns="http://www.w3.org/2000/svg">
<g filter="url(#filter0_f_5564_7590)">
<path fill-rule="evenodd" clip-rule="evenodd" d="M1153.27 1229.2C1004.33 1161.84 601.044 1181.09 483.093 1094.24C362.819 1005.69 409.693 961.828 348.871 867.508C279.762 760.336 285.571 422.962 364.871 359.008C443.738 295.403 572.987 437.559 745.937 456.878C893.158 473.324 1274.64 278.445 1428.87 322.008C1607.06 372.337 1684.07 241.057 1825.89 336.508C1967.01 431.486 1871.42 682.748 1883.29 778.527C1893.63 862.101 1865.85 1071.61 1825.89 1138.77C1776.74 1221.39 1820.89 1347.91 1660.66 1357.51C1500.87 1367.08 1333.03 1310.5 1153.27 1229.2Z" fill="url(#paint0_linear_5564_7590)"/>
</g>
<g filter="url(#filter1_f_5564_7590)">
<path fill-rule="evenodd" clip-rule="evenodd" d="M1848.37 1502.97C1855.7 1672.03 1782.82 1873.15 1619.42 1967.11C1463.61 2056.7 1294.73 1936.89 1122.7 1920.23C974.202 1905.85 703.118 1947.81 589.033 1866.46C455.54 1771.27 406.239 1186.06 451.722 1023.61C549.475 803.033 636.217 821.162 779.96 719.219C906.231 629.667 1113.79 913.59 1264.76 913.605C1416.94 913.62 1581.02 1023.21 1679.06 1122.22C1784.49 1228.69 1841.82 1352.02 1848.37 1502.97Z" fill="url(#paint1_linear_5564_7590)"/>
</g>
<g filter="url(#filter2_f_5564_7590)">
<path fill-rule="evenodd" clip-rule="evenodd" d="M1852.62 1857.59C1869.87 1972.66 1802.91 2108.67 1632.96 2170.84C1470.91 2230.12 1283.22 2146.82 1097.88 2133.66C937.894 2122.3 649.625 2147.95 522.811 2091.41C374.425 2025.24 289.089 1626.68 328.828 1516.67C421.375 1367.69 515.367 1380.94 663.799 1313.14C794.189 1253.57 1032.45 1448.9 1194.29 1450.51C1357.42 1452.15 1539.4 1528.43 1649.99 1596.82C1768.92 1670.36 1837.22 1754.86 1852.62 1857.59Z" fill="url(#paint2_linear_5564_7590)"/>
</g>
<defs>
<filter id="filter0_f_5564_7590" x="0.917969" y="0.691406" width="2203.09" height="1657.87" filterUnits="userSpaceOnUse" color-interpolation-filters="sRGB">
<feFlood flood-opacity="0" result="BackgroundImageFix"/>
<feBlend mode="normal" in="SourceGraphic" in2="BackgroundImageFix" result="shape"/>
<feGaussianBlur stdDeviation="150" result="effect1_foregroundBlur_5564_7590"/>
</filter>
<filter id="filter1_f_5564_7590" x="165.203" y="431.75" width="1953.67" height="1838.29" filterUnits="userSpaceOnUse" color-interpolation-filters="sRGB">
<feFlood flood-opacity="0" result="BackgroundImageFix"/>
<feBlend mode="normal" in="SourceGraphic" in2="BackgroundImageFix" result="shape"/>
<feGaussianBlur stdDeviation="135" result="effect1_foregroundBlur_5564_7590"/>
</filter>
<filter id="filter2_f_5564_7590" x="49.0938" y="1031.84" width="2076.16" height="1430.06" filterUnits="userSpaceOnUse" color-interpolation-filters="sRGB">
<feFlood flood-opacity="0" result="BackgroundImageFix"/>
<feBlend mode="normal" in="SourceGraphic" in2="BackgroundImageFix" result="shape"/>
<feGaussianBlur stdDeviation="135" result="effect1_foregroundBlur_5564_7590"/>
</filter>
<linearGradient id="paint0_linear_5564_7590" x1="2046.77" y1="1086.37" x2="515.47" y2="706.364" gradientUnits="userSpaceOnUse">
<stop stop-color="#B4D1FF" stop-opacity="0.98"/>
<stop offset="0.384946" stop-color="white"/>
<stop offset="1" stop-color="#FFE0CD"/>
</linearGradient>
<linearGradient id="paint1_linear_5564_7590" x1="1580" y1="-67.6584" x2="620.785" y2="2531.24" gradientUnits="userSpaceOnUse">
<stop stop-color="white"/>
<stop offset="0.271939" stop-color="#FFE2E1"/>
<stop offset="0.566922" stop-color="#D7E4FF"/>
<stop offset="1" stop-color="#FFB2C3"/>
</linearGradient>
<linearGradient id="paint2_linear_5564_7590" x1="1855.65" y1="1126.61" x2="1126" y2="2682.18" gradientUnits="userSpaceOnUse">
<stop stop-color="white"/>
<stop offset="0.430563" stop-color="#FFE1E5"/>
<stop offset="0.731538" stop-color="#D7E9FF"/>
<stop offset="1" stop-color="#FFB2C3"/>
</linearGradient>
</defs>
</svg>
